<svg xmlns="http://www.w3.org/2000/svg" viewBox="0 0 32 32">
  <rect width="32" height="32" fill="#000"/>
  <!-- Pixel-art dragon head, phosphor green, facing right: back horn, brow,
       open jaw with a tooth and fang, neck spikes. Eye, nostril, and the
       mouth gap are black cut-outs in the silhouette. -->
  <g fill="#c7f0c7">
    <rect x="12" y="0" width="2" height="1"/>
    <rect x="11" y="1" width="4" height="1"/>
    <rect x="11" y="2" width="5" height="1"/>
    <rect x="11" y="3" width="5" height="1"/>
    <rect x="10" y="4" width="5" height="1"/>
    <rect x="10" y="5" width="5" height="1"/>
    <rect x="10" y="6" width="5" height="1"/>
    <rect x="8" y="7" width="9" height="1"/>
    <rect x="6" y="8" width="13" height="1"/>
    <rect x="6" y="9" width="13" height="1"/>
    <rect x="1" y="10" width="1" height="1"/>
    <rect x="5" y="10" width="9" height="1"/>
    <rect x="17" y="10" width="7" height="1"/>
    <rect x="2" y="11" width="1" height="1"/>
    <rect x="5" y="11" width="9" height="1"/>
    <rect x="17" y="11" width="13" height="1"/>
    <rect x="2" y="12" width="12" height="1"/>
    <rect x="17" y="12" width="9" height="1"/>
    <rect x="27" y="12" width="3" height="1"/>
    <rect x="3" y="13" width="22" height="1"/>
    <rect x="28" y="13" width="2" height="1"/>
    <rect x="3" y="14" width="23" height="1"/>
    <rect x="27" y="14" width="3" height="1"/>
    <rect x="2" y="15" width="1" height="1"/>
    <rect x="4" y="15" width="26" height="1"/>
    <rect x="3" y="16" width="27" height="1"/>
    <rect x="4" y="17" width="16" height="1"/>
    <rect x="24" y="17" width="1" height="1"/>
    <rect x="5" y="18" width="9" height="1"/>
    <rect x="19" y="18" width="7" height="1"/>
    <rect x="3" y="19" width="1" height="1"/>
    <rect x="6" y="19" width="8" height="1"/>
    <rect x="20" y="19" width="6" height="1"/>
    <rect x="1" y="20" width="13" height="1"/>
    <rect x="20" y="20" width="7" height="1"/>
    <rect x="0" y="21" width="17" height="1"/>
    <rect x="0" y="22" width="15" height="1"/>
    <rect x="16" y="22" width="7" height="1"/>
    <rect x="0" y="23" width="13" height="1"/>
    <rect x="16" y="23" width="13" height="1"/>
    <rect x="0" y="24" width="13" height="1"/>
    <rect x="15" y="24" width="14" height="1"/>
    <rect x="0" y="25" width="12" height="1"/>
    <rect x="15" y="25" width="14" height="1"/>
    <rect x="0" y="26" width="12" height="1"/>
    <rect x="15" y="26" width="14" height="1"/>
    <rect x="0" y="27" width="12" height="1"/>
    <rect x="0" y="28" width="12" height="1"/>
    <rect x="0" y="29" width="11" height="1"/>
    <rect x="0" y="30" width="11" height="1"/>
  </g>
</svg>
